<svg xmlns="http://www.w3.org/2000/svg" viewBox="0 0 776 730" fill="#35a3fc" fill-rule="evenodd"><path d="M442.50,719.62C514.72,710.00 572.40,687.60 623.87,649.16L635.23,640.67 640.87,643.75C659.13,653.74 678.72,654.31 697.00,645.36C707.27,640.33 719.26,628.43 724.45,618.12C733.26,600.58 733.10,578.96 724.03,562.43C719.39,553.99 719.35,553.72 721.93,550.10C727.67,542.04 741.51,512.01 748.02,493.50C773.83,420.07 773.87,321.87 748.10,247.88C740.61,226.36 729.47,202.09 718.62,183.66L712.99,174.09 717.03,167.84C721.58,160.80 724.57,151.64 725.49,141.98C727.94,116.20 710.34,90.78 684.50,82.77C669.68,78.17 649.29,80.94 638.08,89.06C635.84,90.68 633.58,92.00 633.04,92.00C632.51,92.00 628.79,89.04 624.78,85.42C607.20,69.54 567.82,46.41 539.00,35.05C504.25,21.34 477.35,14.66 437.50,9.83C420.72,7.80 367.03,8.12 351.00,10.35C264.46,22.37 196.45,54.79 139.89,110.99C112.00,138.71 90.59,168.63 74.49,202.37C68.28,215.40 59.79,236.02 58.46,241.30C57.69,244.36 56.18,245.41 51.00,246.50C42.10,248.37 28.79,256.71 20.94,265.33C13.16,273.89 8.04,288.61 8.01,302.52C7.98,320.78 16.56,338.12 31.30,349.61L36.00,353.27 36.01,365.88C36.04,445.24 64.60,525.79 115.18,589.18C132.91,611.41 163.61,639.71 189.00,657.23C238.98,691.74 302.74,714.82 362.26,719.96C368.99,720.54 376.07,721.20 378.00,721.42C385.69,722.30 432.13,721.00 442.50,719.62ZM396.30,694.56C389.20,691.25 385.01,688.29 377.80,681.48C358.11,662.85 341.33,639.47 326.53,610.00C320.04,597.09 307.51,566.80 306.44,561.44L305.83,558.41 314.67,557.21C350.25,552.41 396.80,550.75 432.52,553.01C458.62,554.66 497.44,559.28 499.28,560.95C501.25,562.74 487.32,601.31 477.05,622.50C460.22,657.25 437.71,685.49 419.69,694.47C412.74,697.93 403.61,697.97 396.30,694.56ZM340.59,693.92C305.07,687.18 270.91,675.53 239.50,659.45C186.76,632.46 145.93,594.64 110.53,540.00C98.47,521.39 82.43,486.38 75.57,463.71C72.57,453.80 65.78,424.91 64.10,414.89C62.62,406.06 60.01,376.16 60.01,367.89L60.00,361.28 70.75,360.72C88.51,359.79 98.97,355.21 111.02,343.07C116.92,337.14 119.30,333.82 122.02,327.76C124.50,322.23 125.93,320.15 127.00,320.48C127.82,320.73 139.07,321.87 152.00,323.01C200.32,327.29 249.96,333.30 250.02,334.88C250.04,335.22 250.23,351.48 250.46,371.00C251.20,433.96 257.13,483.41 269.42,528.96C270.82,534.17 271.64,538.75 271.24,539.13C270.83,539.52 261.95,541.72 251.50,544.01C218.26,551.32 171.74,564.57 162.00,569.50C155.40,572.84 153.88,579.23 158.50,584.21C162.88,588.94 166.23,588.80 184.28,583.17C206.16,576.33 211.80,574.75 230.71,570.09C253.88,564.40 277.18,559.78 278.09,560.71C278.52,561.14 280.86,567.12 283.30,574.00C290.56,594.54 293.98,602.63 303.18,621.00C316.55,647.72 332.01,670.83 348.49,688.75C356.17,697.10 356.43,696.93 340.59,693.92ZM465.15,688.21C477.70,674.65 489.54,656.52 499.22,636.03C502.99,628.04 506.51,620.60 507.04,619.50C509.66,614.00 519.11,587.10 522.06,576.75C524.48,568.24 525.83,565.00 526.95,565.00C529.45,565.01 557.88,572.63 569.77,576.47C575.77,578.41 582.50,580.00 584.71,580.00C592.44,580.00 596.36,572.46 592.49,564.99C591.16,562.42 589.37,561.55 577.24,557.65C569.68,555.22 556.30,551.31 547.50,548.96C538.70,546.61 531.13,544.36 530.67,543.96C530.21,543.56 531.18,536.32 532.83,527.87C534.48,519.42 536.83,506.31 538.06,498.75C539.30,491.19 540.57,485.01 540.90,485.02C542.26,485.08 569.64,512.62 583.13,527.50C602.13,548.46 613.15,562.12 612.56,564.00C608.80,576.06 608.00,580.31 608.00,588.18C608.00,599.77 609.38,605.94 614.09,615.28C616.24,619.56 618.00,623.42 618.00,623.85C618.00,624.94 595.56,640.45 583.37,647.79C551.99,666.66 516.45,680.92 475.53,691.04C458.86,695.16 458.74,695.13 465.15,688.21ZM663.80,626.96C649.73,624.80 638.84,615.37 634.07,601.20C626.19,577.81 642.59,553.82 667.57,552.21C683.46,551.19 699.18,561.54 704.56,576.55C707.05,583.52 707.09,596.94 704.62,603.50C698.38,620.10 681.69,629.69 663.80,626.96ZM616.00,527.77C608.58,519.43 589.07,499.11 572.65,482.63L542.80,452.65 543.90,428.48C545.73,388.26 545.18,355.10 541.98,312.50C540.72,295.76 534.70,245.77 533.47,241.91C532.75,239.64 536.06,236.99 557.12,223.00C573.23,212.30 595.18,198.93 617.00,186.53C621.67,183.87 626.21,181.25 627.07,180.72C628.26,179.98 629.83,180.65 633.48,183.44C648.64,195.01 667.40,197.94 686.10,191.67C690.16,190.30 693.82,189.39 694.21,189.63C696.82,191.24 712.53,222.53 719.83,240.64C745.63,304.66 750.54,389.28 732.54,459.40C726.68,482.22 715.08,511.65 704.47,530.62L700.98,536.86 694.48,533.92C673.58,524.44 650.46,526.58 635.09,539.43C632.73,541.39 630.52,542.99 630.16,542.97C629.79,542.96 623.42,536.12 616.00,527.77ZM490.94,537.95C440.53,530.30 375.27,529.24 320.25,535.17C307.78,536.52 299.62,537.00 299.08,536.43C297.97,535.26 289.70,502.04 287.03,488.00C283.81,471.08 281.20,451.78 279.52,432.50C278.66,422.60 277.76,412.70 277.53,410.50C277.30,408.30 276.78,391.03 276.39,372.13C275.69,338.58 275.72,337.77 277.59,338.31C278.64,338.61 282.20,339.38 285.50,340.00C292.29,341.30 317.82,347.54 322.75,349.12L326.00,350.16 326.01,358.83C326.04,375.92 331.62,389.87 342.88,401.02C358.63,416.62 382.14,422.37 402.38,415.57C410.01,413.01 422.06,406.10 424.87,402.67C425.63,401.75 426.90,401.00 427.71,401.00C432.50,401.00 497.85,448.12 515.88,464.58C517.04,465.63 517.07,467.23 516.07,474.17C511.98,502.68 504.92,539.27 503.47,539.53C502.94,539.63 497.30,538.92 490.94,537.95ZM514.57,432.39C508.00,426.69 484.64,409.96 463.00,395.48C451.73,387.93 442.13,381.42 441.69,381.01C441.24,380.61 441.63,377.40 442.54,373.89C445.89,361.07 444.15,343.07 438.47,331.75C437.11,329.05 436.00,326.37 436.00,325.80C436.00,324.31 463.49,296.62 476.50,284.99C495.84,267.71 510.43,256.10 511.48,257.14C513.18,258.85 518.57,312.32 520.08,342.50C521.32,367.29 520.75,431.86 519.27,434.45C518.68,435.48 517.58,435.00 514.57,432.39ZM373.70,392.61C348.45,383.23 342.30,347.87 362.79,329.88C379.96,314.81 407.39,321.27 417.29,342.72C419.15,346.73 419.50,349.27 419.50,358.50C419.50,368.68 419.28,369.93 416.57,375.29C413.29,381.77 407.37,387.73 400.85,391.12C395.34,393.98 379.71,394.84 373.70,392.61ZM58.50,336.11C48.55,333.42 39.71,326.23 35.86,317.71C32.54,310.36 32.43,293.81 35.66,286.82C38.71,280.23 44.94,273.86 51.71,270.44C56.91,267.80 58.47,267.50 67.02,267.50C75.76,267.50 77.09,267.77 83.21,270.78C96.26,277.21 102.51,287.50 102.46,302.50C102.39,321.54 88.70,335.63 69.35,336.55C65.03,336.75 60.15,336.56 58.50,336.11ZM322.00,326.55C317.88,325.32 306.03,322.55 295.68,320.41L276.86,316.50 277.45,305.50C278.63,283.53 282.28,244.50 284.01,235.50C287.13,219.23 291.30,198.46 291.49,198.22C292.85,196.55 347.90,181.60 371.50,176.49C403.10,169.65 439.66,163.36 467.84,159.93C482.84,158.10 486.34,157.93 487.00,159.00C487.45,159.73 489.91,168.23 492.46,177.91C500.17,207.06 500.69,208.56 504.08,211.41C507.66,214.43 511.67,214.73 516.67,212.35C521.56,210.03 523.46,206.69 523.21,200.87C522.96,195.13 518.68,174.34 515.96,165.66C514.89,162.27 514.02,158.94 514.01,158.25C514.00,156.68 557.50,156.51 578.19,158.01C592.59,159.04 594.90,158.71 598.75,155.06C601.84,152.13 601.81,146.06 598.70,142.44C595.22,138.39 589.69,137.87 547.02,137.59L508.55,137.33 502.32,120.92C489.51,87.13 471.28,54.84 455.66,38.25C452.94,35.36 450.91,33.00 451.16,33.00C451.41,33.00 456.38,33.88 462.20,34.94C516.17,44.86 577.84,73.02 612.92,103.76L617.34,107.63 614.02,115.56C608.55,128.64 608.61,147.35 614.16,158.28C616.48,162.87 616.23,163.34 609.68,166.65C606.83,168.09 597.98,173.09 590.00,177.77C582.02,182.45 573.92,187.16 572.00,188.24C528.62,212.60 475.81,253.00 433.25,294.40L418.97,308.30 414.23,305.77C396.83,296.48 376.86,295.66 360.43,303.57C352.21,307.52 341.61,316.74 336.87,324.06C333.18,329.75 332.86,329.80 322.00,326.55ZM233.50,310.40C213.58,307.67 179.05,304.02 158.50,302.48C146.95,301.62 135.05,300.59 132.05,300.20L126.61,299.50 125.43,292.50C124.75,288.39 124.63,285.04 125.15,284.38C126.47,282.70 148.94,267.35 161.50,259.54C167.55,255.78 174.88,251.18 177.79,249.32C185.05,244.67 219.20,227.11 232.00,221.45C248.33,214.22 261.21,208.87 261.47,209.20C261.59,209.36 260.91,213.55 259.95,218.50C258.99,223.45 257.27,235.82 256.14,246.00C254.31,262.41 253.58,271.27 251.38,303.75L250.82,312.00 247.16,311.88C245.15,311.82 239.00,311.15 233.50,310.40ZM107.02,258.81C102.08,254.21 91.58,248.17 85.96,246.70C83.45,246.04 83.41,246.21 89.35,231.00C102.61,197.03 127.56,157.77 153.26,130.45C163.62,119.43 184.79,101.19 198.83,91.17C232.35,67.26 270.84,49.48 310.57,39.57C322.42,36.61 338.00,33.99 338.00,34.95C338.00,35.32 336.60,36.95 334.89,38.56C330.65,42.56 321.68,54.53 314.31,66.02C297.30,92.52 281.18,130.44 270.98,168.00C265.96,186.47 265.92,186.57 261.98,187.35C257.54,188.24 221.07,203.58 203.94,211.76C175.74,225.23 139.80,245.51 120.80,258.67C116.57,261.60 112.97,263.98 112.80,263.96C112.64,263.94 110.03,261.62 107.02,258.81ZM296.98,172.25C304.60,148.26 309.05,135.43 313.17,125.58C336.14,70.61 367.26,33.37 391.96,31.30C406.92,30.05 421.66,37.95 436.46,55.16C444.74,64.79 458.04,85.98 465.12,100.85C469.88,110.85 481.00,137.27 481.00,138.59C481.00,138.66 477.74,139.01 473.75,139.38C434.43,143.00 368.41,155.65 321.17,168.60C308.34,172.12 297.45,175.00 296.97,175.00C296.48,175.00 296.48,173.80 296.98,172.25ZM658.93,170.63C649.06,167.97 641.49,161.71 636.91,152.40C634.83,148.16 634.50,146.08 634.50,137.00C634.50,127.45 634.75,126.02 637.28,121.22C648.08,100.73 674.35,95.81 690.65,111.23C698.40,118.56 702.31,126.93 702.36,136.30C702.42,147.43 699.88,153.99 692.57,161.55C687.20,167.11 685.68,168.07 679.39,169.92C671.43,172.25 665.68,172.45 658.93,170.63Z"/></svg>
