<svg xmlns="http://www.w3.org/2000/svg" viewBox="0 0 564 494" fill="#6b9bae" fill-rule="evenodd"><path d="M542.29,486.50C555.60,481.65 561.43,467.27 555.30,454.40L553.86,451.36 521.36,418.83L488.86,386.29 490.30,384.27C494.11,378.86 498.83,370.55 501.98,363.69C515.26,334.72 518.22,302.04 510.36,271.26C496.17,215.67 449.63,174.67 392.64,167.55C389.06,167.10 380.66,166.51 375.04,166.31L372.96,166.24 372.80,123.20L372.63,80.16 371.92,77.64C369.12,67.74 361.30,59.92 351.52,57.23C349.07,56.56 348.23,56.52 332.58,56.40C320.62,56.30 316.12,56.16 315.91,55.89C315.75,55.69 315.37,54.54 315.06,53.35C313.13,46.06 307.81,39.53 300.96,36.08C296.57,33.87 291.37,32.80 283.44,32.46C277.59,32.21 277.69,32.25 277.12,30.08C275.67,24.58 271.19,18.25 266.08,14.47C257.03,7.78 240.88,4.95 224.65,7.22C208.92,9.41 198.69,16.87 194.40,29.27L193.40,32.16 186.70,32.54C178.63,32.99 175.21,33.75 170.40,36.13C163.22,39.69 158.22,45.78 156.04,53.62L155.34,56.16 116.63,56.34C81.33,56.50 77.74,56.57 75.84,57.07C62.33,60.66 54.40,71.04 54.40,85.14C54.40,86.30 54.33,87.33 54.24,87.42C54.15,87.51 53.25,87.30 52.24,86.96C50.75,86.45 49.94,86.37 48.00,86.54C38.31,87.40 31.86,93.06 29.37,102.88L28.64,105.76 28.64,252.96L28.64,400.16 29.59,401.87C31.38,405.11 33.85,406.55 37.60,406.55C41.35,406.55 43.82,405.11 45.61,401.87L46.56,400.16 46.72,253.76C46.89,97.80 46.80,105.77 48.33,104.95C48.65,104.78 49.51,104.64 50.23,104.64C50.95,104.64 52.07,104.42 52.71,104.15C53.35,103.88 53.99,103.78 54.14,103.93C54.28,104.07 54.36,175.75 54.32,263.22L54.24,422.24 41.12,422.24C26.41,422.24 26.57,422.26 25.44,420.00C24.80,418.73 24.80,417.92 24.64,270.88C24.49,135.31 24.44,122.95 23.96,121.90C20.74,114.83 10.78,114.80 7.30,121.86L6.56,123.36 6.56,271.84L6.56,420.32 7.28,423.04C9.23,430.39 13.23,435.42 19.36,438.25C24.10,440.44 24.06,440.43 41.99,440.56L58.21,440.68 59.62,442.66C62.69,446.95 67.78,451.01 72.50,452.93C77.29,454.87 66.48,454.74 214.88,454.65L350.24,454.56 353.05,453.68C357.93,452.15 361.86,449.75 365.15,446.31L366.73,444.65 375.44,444.62C384.39,444.58 388.62,444.28 396.16,443.17C416.32,440.18 436.66,432.28 453.33,420.96L456.25,418.97 487.73,450.47C518.92,481.69 521.36,483.99 524.99,485.66C530.15,488.02 537.20,488.36 542.29,486.50ZM532.16,474.28C529.72,473.48 527.27,471.15 497.89,441.70L466.98,410.72 473.94,403.81L480.90,396.89 511.92,427.97C546.29,462.40 544.43,460.30 544.44,464.64C544.45,470.08 540.57,474.20 535.20,474.44C533.97,474.50 532.60,474.42 532.16,474.28ZM253.67,436.28C253.56,436.17 253.69,435.64 253.97,435.09C256.00,431.17 253.80,425.49 249.41,423.33L247.84,422.56 160.32,422.40L72.80,422.24 72.80,251.84L72.80,81.44 73.55,79.93C74.47,78.04 76.96,75.76 78.64,75.26C79.62,74.97 111.25,74.88 213.62,74.88L347.32,74.88 348.67,75.53C350.27,76.31 352.61,78.72 353.65,80.67L354.40,82.08 354.40,125.10L354.40,168.11 351.20,168.66C315.55,174.82 282.18,196.15 261.54,226.00L259.16,229.43 213.66,229.52L168.16,229.60 166.52,230.47C160.82,233.47 159.84,241.15 164.61,245.35C167.45,247.84 164.35,247.68 208.80,247.68C230.65,247.68 248.61,247.76 248.71,247.86C248.81,247.96 248.10,249.94 247.14,252.26C241.12,266.75 237.75,281.62 236.69,298.24L236.32,304.16 202.56,304.32C165.55,304.50 167.97,304.36 165.03,306.44C160.50,309.64 160.50,317.56 165.03,320.76C167.97,322.84 165.49,322.70 203.20,322.88L237.60,323.04 237.69,323.84C239.57,339.71 246.69,360.89 254.67,374.33C255.37,375.51 255.56,376.07 255.28,376.17C255.06,376.25 218.59,376.35 174.24,376.40L93.60,376.48 91.78,377.37C84.80,380.80 84.80,390.40 91.78,393.83L93.60,394.72 181.29,394.88L268.97,395.04 271.66,398.04C280.45,407.84 290.89,416.66 301.82,423.51C307.05,426.79 318.28,432.55 323.08,434.42C324.86,435.11 326.34,435.82 326.36,436.00C326.40,436.35 254.02,436.63 253.67,436.28ZM369.76,426.36C346.74,424.91 326.96,418.33 308.32,405.92C257.70,372.24 240.23,305.41 267.82,251.04C293.45,200.55 350.66,174.50 405.28,188.48C469.97,205.03 508.98,270.42 492.76,335.11C480.48,384.11 438.60,420.47 388.38,425.75C383.67,426.24 373.27,426.59 369.76,426.36ZM388.80,413.93C418.93,410.05 445.44,394.56 463.44,370.31C484.63,341.77 490.41,303.79 478.71,269.92C466.17,233.63 434.94,206.26 397.44,198.71C384.25,196.06 370.07,195.85 356.83,198.10C311.39,205.85 275.12,242.59 267.88,288.19C257.90,351.11 302.79,408.52 366.56,414.38C371.16,414.80 384.06,414.55 388.80,413.93ZM369.44,396.29C363.47,395.69 361.26,395.38 357.90,394.71C323.30,387.79 295.76,361.45 287.34,327.20C285.44,319.50 284.99,315.32 284.99,305.60C284.99,295.88 285.44,291.70 287.34,284.00C295.61,250.36 322.20,224.42 356.16,216.84C368.75,214.03 383.68,214.15 396.48,217.14C443.75,228.22 474.06,275.15 464.78,322.91C456.60,365.04 420.27,395.56 377.44,396.30C373.74,396.37 370.14,396.36 369.44,396.29ZM381.29,383.11C408.10,371.25 424.14,355.13 430.24,333.92C432.49,326.10 432.42,327.39 432.55,292.04C432.68,256.48 432.79,258.37 430.51,255.71C429.88,254.97 428.50,253.93 427.44,253.40C422.80,251.06 378.80,231.04 377.56,230.71C374.82,229.97 374.23,230.20 347.75,242.33C320.43,254.85 320.91,254.59 319.30,257.86L318.56,259.36 318.56,290.56C318.56,319.09 318.61,322.07 319.14,325.44C322.69,347.99 335.69,364.95 359.41,377.95C363.14,379.99 369.32,382.94 372.48,384.19C374.53,385.00 377.97,384.58 381.29,383.11ZM371.02,363.40C350.48,352.84 340.33,340.76 337.22,323.20C336.89,321.34 336.80,314.84 336.80,294.11L336.80,267.43 356.21,258.53L375.63,249.64 393.97,258.05C404.06,262.68 412.79,266.71 413.37,267.01L414.43,267.55 414.32,295.14C414.19,325.93 414.28,324.70 411.81,331.74C407.18,344.91 394.79,356.89 377.77,364.65L375.47,365.69 371.02,363.40ZM115.77,329.64C117.51,328.75 117.22,329.06 131.84,312.21C146.03,295.86 146.60,295.07 146.60,291.73C146.60,285.04 139.84,280.55 133.91,283.31C131.85,284.28 132.07,284.04 120.81,297.05L111.21,308.13 106.21,303.19C102.35,299.38 100.79,298.05 99.41,297.42C93.40,294.67 86.63,298.90 86.58,305.44C86.54,309.22 86.82,309.60 96.76,319.63C101.71,324.61 106.37,329.05 107.11,329.49C109.55,330.93 113.11,330.99 115.77,329.64ZM371.72,329.64C372.40,329.28 373.27,328.72 373.64,328.41C375.16,327.15 408.85,285.18 409.70,283.49C413.78,275.41 404.42,267.10 396.73,271.98C395.67,272.65 391.76,277.27 381.76,289.64C374.32,298.86 367.99,306.65 367.70,306.96C367.21,307.49 366.83,307.14 361.34,301.00C354.33,293.20 353.56,292.64 349.60,292.64C345.75,292.64 343.22,294.20 341.35,297.72C340.34,299.63 340.35,303.60 341.38,305.54C342.50,307.65 361.55,328.65 363.17,329.55C365.66,330.94 369.20,330.97 371.72,329.64ZM114.54,255.21C116.85,254.39 117.48,253.74 131.15,237.96C145.52,221.39 145.64,221.24 146.22,219.44C148.68,211.85 140.79,204.95 133.66,208.44C132.01,209.25 130.88,210.44 121.59,221.14C115.95,227.64 111.24,232.96 111.12,232.96C111.00,232.96 108.66,230.73 105.92,228.01C100.64,222.77 99.36,221.90 96.37,221.55C89.76,220.76 84.52,228.18 87.31,234.39C88.07,236.08 104.28,252.76 106.52,254.15C109.02,255.70 112.02,256.10 114.54,255.21ZM115.69,179.69C117.21,178.95 118.90,177.12 131.26,162.87C146.30,145.52 146.60,145.10 146.60,141.63C146.60,134.23 138.08,129.83 132.30,134.23C131.69,134.70 127.00,139.93 121.87,145.86C116.74,151.79 112.21,157.00 111.79,157.43L111.04,158.23 105.84,153.07C99.95,147.22 99.35,146.83 96.00,146.63C89.17,146.24 84.38,153.40 87.41,159.49C88.25,161.18 105.61,178.68 107.36,179.59C110.09,181.03 112.89,181.06 115.69,179.69ZM309.14,171.97C316.42,168.60 316.48,158.62 309.25,155.30L307.61,154.55 237.73,154.64L167.84,154.72 166.56,155.41C159.35,159.32 160.09,169.54 167.79,172.21C169.36,172.75 172.86,172.78 238.56,172.71L307.68,172.64 309.14,171.97ZM174.89,56.01C174.61,55.57 176.88,53.17 178.22,52.49C180.72,51.22 181.75,51.11 192.64,50.88C204.96,50.63 205.50,50.53 208.02,48.01C209.87,46.16 210.50,44.37 210.86,39.95C211.40,33.49 213.33,30.32 218.27,27.83C227.05,23.39 246.37,23.77 254.30,28.54C258.25,30.91 260.46,35.35 260.47,40.98C260.49,45.02 262.59,48.44 265.99,49.94C267.62,50.66 268.07,50.70 278.56,50.89C290.02,51.10 290.15,51.12 293.36,52.76C294.72,53.45 296.73,55.60 296.45,56.05C296.21,56.44 175.12,56.40 174.89,56.01Z"/></svg>
